solid COMSOL rendering object blk1
facet normal 0 0 -1
outer loop
vertex 0 0.100000001490116 0
vertex 0.100000001490116 0.100000001490116 0
vertex 0.100000001490116 0 0
endloop
endfacet
facet normal 0 0 -1
outer loop
vertex 0.100000001490116 0 0
vertex 0 0 0
vertex 0 0.100000001490116 0
endloop
endfacet
facet normal -1 0 0
outer loop
vertex 0 0 0.00100000004749745
vertex 0 0.100000001490116 0.00100000004749745
vertex 0 0.100000001490116 0
endloop
endfacet
facet normal -1 0 0
outer loop
vertex 0 0.100000001490116 0
vertex 0 0 0
vertex 0 0 0.00100000004749745
endloop
endfacet
facet normal 0 -1 0
outer loop
vertex 0.100000001490116 0 0
vertex 0.100000001490116 0 0.00100000004749745
vertex 0 0 0.00100000004749745
endloop
endfacet
facet normal 0 -1 0
outer loop
vertex 0 0 0.00100000004749745
vertex 0 0 0
vertex 0.100000001490116 0 0
endloop
endfacet
facet normal 0 0 1
outer loop
vertex 0.100000001490116 0 0.00100000004749745
vertex 0.100000001490116 0.100000001490116 0.00100000004749745
vertex 0 0.100000001490116 0.00100000004749745
endloop
endfacet
facet normal 0 0 1
outer loop
vertex 0 0.100000001490116 0.00100000004749745
vertex 0 0 0.00100000004749745
vertex 0.100000001490116 0 0.00100000004749745
endloop
endfacet
facet normal 1 0 0
outer loop
vertex 0.100000001490116 0.100000001490116 0
vertex 0.100000001490116 0.100000001490116 0.00100000004749745
vertex 0.100000001490116 0 0.00100000004749745
endloop
endfacet
facet normal 1 0 0
outer loop
vertex 0.100000001490116 0 0.00100000004749745
vertex 0.100000001490116 0 0
vertex 0.100000001490116 0.100000001490116 0
endloop
endfacet
facet normal 0 1 0
outer loop
vertex 0 0.100000001490116 0.00100000004749745
vertex 0.100000001490116 0.100000001490116 0.00100000004749745
vertex 0.100000001490116 0.100000001490116 0
endloop
endfacet
facet normal 0 1 0
outer loop
vertex 0.100000001490116 0.100000001490116 0
vertex 0 0.100000001490116 0
vertex 0 0.100000001490116 0.00100000004749745
endloop
endfacet
endsolid COMSOL rendering object blk1
